<svg id="Layer_1" data-name="Layer 1" xmlns="http://www.w3.org/2000/svg" viewBox="0 0 1200 800"><defs><style>.cls-1{stroke:#fff;stroke-miterlimit:10;}.cls-10,.cls-18,.cls-2,.cls-21{font-size:36px;}.cls-13,.cls-2,.cls-21,.cls-9{fill:#fff;}.cls-10,.cls-13,.cls-18,.cls-2,.cls-21{font-family:LeagueSpartan-Bold, League Spartan;font-weight:700;}.cls-3{letter-spacing:-0.01em;}.cls-4{letter-spacing:0em;}.cls-5{letter-spacing:0em;}.cls-6{letter-spacing:0em;}.cls-7{letter-spacing:0em;}.cls-8{letter-spacing:0em;}.cls-11{letter-spacing:-0.06em;}.cls-12,.cls-18{letter-spacing:-0.08em;}.cls-13{font-size:27.89px;}.cls-14{letter-spacing:-0.01em;}.cls-15{letter-spacing:-0.01em;}.cls-16{letter-spacing:-0.05em;}.cls-17{letter-spacing:0em;}.cls-19{letter-spacing:-0.05em;}.cls-20{letter-spacing:0em;}.cls-21{letter-spacing:-0.01em;}.cls-22{letter-spacing:0em;}</style></defs><title>Artboard 1</title><rect class="cls-1" x="100" y="100" width="1000" height="600"/><text class="cls-2" transform="translate(123.85 674.59)">Ga<tspan class="cls-3" x="54.43" y="0">r</tspan><tspan x="72.07" y="0">a</tspan><tspan class="cls-4" x="96.66" y="0">g</tspan><tspan class="cls-5" x="121.07" y="0">eLog</tspan><tspan class="cls-6" x="211.5" y="0">g</tspan><tspan class="cls-7" x="235.91" y="0">e</tspan><tspan class="cls-8" x="257.54" y="0">r</tspan></text><rect class="cls-9" x="150" y="150" width="425" height="200"/><rect class="cls-9" x="625" y="150" width="425" height="200"/><text class="cls-10" transform="translate(169.85 328.59)">O<tspan class="cls-6" x="31.57" y="0">u</tspan><tspan x="55.01" y="0">tp</tspan><tspan class="cls-6" x="93.82" y="0">u</tspan><tspan x="117.25" y="0">t</tspan><tspan class="cls-11" x="131.47" y="0">T</tspan><tspan class="cls-8" x="150.84" y="0">ype</tspan></text><text class="cls-10" transform="translate(643.85 328.59)"><tspan class="cls-12">T</tspan><tspan x="18.65" y="0">extO</tspan><tspan class="cls-6" x="109.69" y="0">u</tspan><tspan x="133.13" y="0">tp</tspan><tspan class="cls-6" x="171.94" y="0">u</tspan><tspan class="cls-5" x="195.37" y="0">t</tspan></text><rect x="175" y="175" width="175" height="100"/><rect x="375" y="175" width="175" height="100"/><rect x="650" y="175" width="112.5" height="100"/><rect x="781.25" y="175" width="112.5" height="100"/><rect x="912.5" y="175" width="112.5" height="100"/><text class="cls-2" transform="translate(200.65 240.11)">o<tspan class="cls-6" x="23.8" y="0">u</tspan><tspan x="47.23" y="0">tp</tspan><tspan class="cls-6" x="86.04" y="0">u</tspan><tspan class="cls-5" x="109.48" y="0">t</tspan></text><text class="cls-2" transform="translate(400.65 240.11)">o<tspan class="cls-6" x="23.8" y="0">u</tspan><tspan x="47.23" y="0">tp</tspan><tspan class="cls-6" x="86.04" y="0">u</tspan><tspan class="cls-5" x="109.48" y="0">t</tspan></text><text class="cls-13" transform="translate(661.78 235.7)"><tspan class="cls-14">s</tspan><tspan x="13.47" y="0">tdo</tspan><tspan class="cls-15" x="61.96" y="0">u</tspan><tspan x="80.11" y="0">t</tspan></text><text class="cls-13" transform="translate(788.68 235.7)">foo.txt</text><text class="cls-13" transform="translate(915.37 235.7)">ba<tspan class="cls-16" x="38.09" y="0">r</tspan><tspan class="cls-17" x="50.44" y="0">.log</tspan></text><rect class="cls-9" x="625" y="400" width="425" height="200"/><text class="cls-18" transform="translate(643.85 578.59)">T<tspan class="cls-8" x="18.65" y="0">abularO</tspan><tspan class="cls-6" x="176.22" y="0">u</tspan><tspan class="cls-5" x="199.66" y="0">tp</tspan><tspan class="cls-4" x="238.46" y="0">u</tspan><tspan class="cls-5" x="261.9" y="0">t</tspan></text><rect x="650" y="425" width="175" height="100"/><rect x="850" y="425" width="175" height="100"/><text class="cls-2" transform="translate(662.95 490.11)">fba<tspan class="cls-19" x="62.68" y="0">r</tspan><tspan x="78.62" y="0">.</tspan><tspan class="cls-20" x="91.19" y="0">c</tspan><tspan x="108.72" y="0">sv</tspan></text><text class="cls-21" transform="translate(878.68 490.11)">s<tspan class="cls-5" x="17.39" y="0">tdo</tspan><tspan class="cls-4" x="79.99" y="0">u</tspan><tspan class="cls-5" x="103.43" y="0">t</tspan></text><rect class="cls-9" x="150" y="525" width="425" height="75"/><text class="cls-10" transform="translate(168.85 578.59)"><tspan class="cls-12">T</tspan><tspan class="cls-22" x="18.65" y="0">e</tspan><tspan class="cls-6" x="40.28" y="0">n</tspan><tspan x="63.9" y="0">s</tspan><tspan class="cls-22" x="81.61" y="0">o</tspan><tspan x="105.34" y="0">rB</tspan><tspan class="cls-6" x="147.24" y="0">o</tspan><tspan x="170.85" y="0">ardO</tspan><tspan class="cls-6" x="269.53" y="0">u</tspan><tspan x="292.97" y="0">tp</tspan><tspan class="cls-6" x="331.77" y="0">u</tspan><tspan x="355.21" y="0">t</tspan></text><rect class="cls-9" x="150" y="400" width="425" height="75"/><text class="cls-10" transform="translate(168.85 453.59)">Ima<tspan class="cls-6" x="71.14" y="0">g</tspan><tspan x="95.54" y="0">eO</tspan><tspan class="cls-6" x="148.82" y="0">u</tspan><tspan class="cls-5" x="172.26" y="0">tp</tspan><tspan class="cls-4" x="211.07" y="0">u</tspan><tspan class="cls-5" x="234.5" y="0">t</tspan></text></svg>