<svg id="Layer_1" data-name="Layer 1" xmlns="http://www.w3.org/2000/svg" viewBox="0 0 1200 800"><defs><style>.cls-1{stroke:#fff;stroke-miterlimit:10;}.cls-2{fill:#fff;}</style></defs><title>GarageLogger</title><rect class="cls-1" x="100" y="100" width="1000" height="600"/><path class="cls-2" d="M152.86,664.4c-1.62,7.53-7.88,10.73-13.72,10.73-8,0-14.47-6.88-14.47-15.37s6.12-15.41,14.47-15.41c5.22,0,8.86,1.95,11.45,5.08l-4.43,4.86a7.34,7.34,0,0,0-6.62-3.82c-4.18,0-7.56,4.14-7.56,9.29s3.38,9.14,7.56,9.14c3.24,0,6.44-2.09,6.44-5.72h-6.84V658h13.72Z"/><path class="cls-2" d="M163.7,655.58a8.37,8.37,0,0,1,6,2.31v-1.77h6.38v18.47h-6.3V672.5h-.08a8.16,8.16,0,0,1-6,2.63c-5.4,0-9.18-4.36-9.18-9.75S158.3,655.58,163.7,655.58Zm1.9,14.11a4.15,4.15,0,0,0,4.29-4.31,4.3,4.3,0,1,0-8.6,0A4.11,4.11,0,0,0,165.6,669.69Z"/><path class="cls-2" d="M180.44,656.12h6.37v2.67h.07a7.24,7.24,0,0,1,5.65-3.21,7.59,7.59,0,0,1,4,1.16l-2.66,5.4a5.38,5.38,0,0,0-3.31-1c-3.31,0-3.78,3.27-3.78,3.74v9.72h-6.37Z"/><path class="cls-2" d="M205.92,655.58a8.38,8.38,0,0,1,6.05,2.31v-1.77h6.37v18.47H212V672.5H212a8.2,8.2,0,0,1-6.05,2.63c-5.4,0-9.17-4.36-9.17-9.75S200.52,655.58,205.92,655.58Zm1.91,14.11a4.15,4.15,0,0,0,4.29-4.31,4.31,4.31,0,1,0-8.61,0A4.12,4.12,0,0,0,207.83,669.69Z"/><path class="cls-2" d="M227.06,676.57a5.54,5.54,0,0,0,5,2.38,4.26,4.26,0,0,0,4.5-4.32v-1.37c-1.37,1.51-3.53,1.87-6.05,1.87-5.4,0-9.18-4.36-9.18-9.75s3.78-9.8,9.18-9.8a8.45,8.45,0,0,1,5.94,2.2h.11v-1.66h6.37v19c0,6.2-4.57,9.4-10.87,9.4-3.85,0-8.28-.87-10.22-5.37Zm5.36-6.88a4.15,4.15,0,0,0,4.28-4.31,4.3,4.3,0,1,0-8.6,0A4.12,4.12,0,0,0,232.42,669.69Z"/><path class="cls-2" d="M252.37,666.24a3.77,3.77,0,0,0,4,3.81,5.06,5.06,0,0,0,4.5-2l4.61,2.31c-2.09,3.49-5.47,4.82-9.58,4.82a9.78,9.78,0,1,1,0-19.55c5.62,0,9.9,3.32,9.9,9.8a8,8,0,0,1,0,.86Zm7.19-3.53a3.28,3.28,0,0,0-3.49-3,3.19,3.19,0,0,0-3.53,3Z"/><path class="cls-2" d="M275.55,668.65h10.22v5.94h-17v-29.7h6.77Z"/><path class="cls-2" d="M298.91,655.58c6.12,0,11,4,11,9.8s-4.65,9.75-11,9.75c-6.66,0-11.12-4.07-11.12-9.75S292.68,655.58,298.91,655.58Zm0,14.11a4.15,4.15,0,0,0,4.28-4.31,4.3,4.3,0,1,0-8.6,0A4.11,4.11,0,0,0,298.88,669.69Z"/><path class="cls-2" d="M317.31,676.57a5.54,5.54,0,0,0,5,2.38,4.26,4.26,0,0,0,4.5-4.32v-1.37c-1.37,1.51-3.53,1.87-6.05,1.87-5.4,0-9.17-4.36-9.17-9.75s3.77-9.8,9.17-9.8a8.45,8.45,0,0,1,5.94,2.2h.11v-1.66h6.37v19c0,6.2-4.57,9.4-10.87,9.4-3.85,0-8.28-.87-10.22-5.37Zm5.36-6.88a4.15,4.15,0,0,0,4.29-4.31,4.31,4.31,0,1,0-8.61,0A4.12,4.12,0,0,0,322.67,669.69Z"/><path class="cls-2" d="M341.9,676.57a5.54,5.54,0,0,0,5,2.38,4.26,4.26,0,0,0,4.5-4.32v-1.37c-1.37,1.51-3.53,1.87-6,1.87-5.4,0-9.18-4.36-9.18-9.75s3.78-9.8,9.18-9.8a8.45,8.45,0,0,1,5.94,2.2h.11v-1.66h6.37v19c0,6.2-4.57,9.4-10.87,9.4-3.85,0-8.28-.87-10.22-5.37Zm5.36-6.88a4.15,4.15,0,0,0,4.28-4.31,4.3,4.3,0,1,0-8.6,0A4.12,4.12,0,0,0,347.26,669.69Z"/><path class="cls-2" d="M367.2,666.24a3.78,3.78,0,0,0,4,3.81,5.06,5.06,0,0,0,4.5-2l4.61,2.31c-2.09,3.49-5.47,4.82-9.58,4.82a9.78,9.78,0,1,1,0-19.55c5.62,0,9.9,3.32,9.9,9.8a6,6,0,0,1,0,.86Zm7.2-3.53a3.28,3.28,0,0,0-3.49-3,3.19,3.19,0,0,0-3.53,3Z"/><path class="cls-2" d="M383.55,656.12h6.37v2.67H390a7.24,7.24,0,0,1,5.65-3.21,7.59,7.59,0,0,1,4,1.16l-2.66,5.4a5.38,5.38,0,0,0-3.31-1c-3.31,0-3.78,3.27-3.78,3.74v9.72h-6.37Z"/><rect class="cls-2" x="150" y="150" width="425" height="200"/><rect class="cls-2" x="625" y="150" width="425" height="200"/><path d="M185.65,298.35a15.05,15.05,0,0,1,14.94,15.37c0,8.68-6.41,15.41-14.94,15.41-8.78,0-15-6.73-15-15.41A15.13,15.13,0,0,1,185.65,298.35Zm0,24.23c5.4,0,7.63-4.43,7.63-8.86s-2.38-8.85-7.63-8.85S178,309.3,178,313.72,180.1,322.58,185.65,322.58Z"/><path d="M209.59,318.91c0,3.63,1,5,3.63,5s3.64-1.41,3.64-5v-8.79h6.37v10.34c0,6.19-3.09,8.67-10,8.67s-10-2.48-10-8.67V310.12h6.37Z"/><path d="M228.09,303.25h6.37v6.87h3.89V315h-3.89v5.87c0,1.73.44,2.56,1.44,2.56a3,3,0,0,0,1.59-.58l1.58,5.15a10.55,10.55,0,0,1-4.68,1.15c-5.07,0-6.3-3.78-6.3-7.06V315h-2.66v-4.86h2.66Z"/><path d="M253.65,329.13a8.45,8.45,0,0,1-6.05-2.3V338h-6.37V310.12h6.3v2.09h.07a8.2,8.2,0,0,1,6.05-2.63c5.4,0,9.18,4.36,9.18,9.76S259.05,329.13,253.65,329.13ZM251.74,315a4.15,4.15,0,0,0-4.28,4.32,4.3,4.3,0,1,0,8.6,0A4.12,4.12,0,0,0,251.74,315Z"/><path d="M271.83,318.91c0,3.63,1,5,3.64,5s3.63-1.41,3.63-5v-8.79h6.38v10.34c0,6.19-3.1,8.67-10,8.67s-10-2.48-10-8.67V310.12h6.37Z"/><path d="M290.34,303.25h6.37v6.87h3.89V315h-3.89v5.87c0,1.73.43,2.56,1.44,2.56a3,3,0,0,0,1.58-.58l1.59,5.15a10.6,10.6,0,0,1-4.68,1.15c-5.08,0-6.3-3.78-6.3-7.06V315h-2.67v-4.86h2.67Z"/><path d="M301.61,298.89h20.87v5.94h-7.05v23.76h-6.77V304.83h-7.05Z"/><path d="M344.19,310.12,329.68,338h-7.34l6.37-12.24L320,310.12h7.34l5.15,9.47,4.39-9.47Z"/><path d="M358.05,329.13a8.45,8.45,0,0,1-6.05-2.3V338h-6.37V310.12h6.3v2.09H352a8.2,8.2,0,0,1,6.05-2.63c5.4,0,9.18,4.36,9.18,9.76S363.45,329.13,358.05,329.13ZM356.14,315a4.15,4.15,0,0,0-4.28,4.32,4.3,4.3,0,1,0,8.6,0A4.12,4.12,0,0,0,356.14,315Z"/><path d="M375.51,320.24a3.78,3.78,0,0,0,4,3.81A5.06,5.06,0,0,0,384,322l4.6,2.31c-2.08,3.49-5.47,4.82-9.57,4.82a9.78,9.78,0,1,1,0-19.55c5.61,0,9.9,3.32,9.9,9.8a6,6,0,0,1,0,.86Zm7.2-3.53a3.28,3.28,0,0,0-3.49-3c-2.2,0-3.42,1.3-3.53,3Z"/><path d="M644.13,298.89H665v5.94h-7v23.76h-6.77V304.83h-7.06Z"/><path d="M670,320.24a3.77,3.77,0,0,0,4,3.81,5.06,5.06,0,0,0,4.5-2.05l4.61,2.31c-2.09,3.49-5.47,4.82-9.58,4.82a9.78,9.78,0,1,1,0-19.55c5.62,0,9.9,3.32,9.9,9.8a8,8,0,0,1,0,.86Zm7.19-3.53a3.28,3.28,0,0,0-3.49-3,3.19,3.19,0,0,0-3.53,3Z"/><path d="M700,328.59,696,323.37l-4.06,5.22H684.2l7.88-9.65-6.76-8.82h7.45l3.2,4.29,3.21-4.29h7.45l-6.77,8.82,7.88,9.65Z"/><path d="M711,303.25h6.37v6.87h3.88V315h-3.88v5.87c0,1.73.43,2.56,1.44,2.56a3,3,0,0,0,1.58-.58L722,328a10.53,10.53,0,0,1-4.67,1.15c-5.08,0-6.3-3.78-6.3-7.06V315h-2.67v-4.86H711Z"/><path d="M737.77,298.35a15.05,15.05,0,0,1,14.94,15.37c0,8.68-6.41,15.41-14.94,15.41-8.79,0-15-6.73-15-15.41A15.13,15.13,0,0,1,737.77,298.35Zm0,24.23c5.4,0,7.63-4.43,7.63-8.86s-2.38-8.85-7.63-8.85-7.67,4.43-7.67,8.85S732.22,322.58,737.77,322.58Z"/><path d="M761.71,318.91c0,3.63,1,5,3.63,5s3.64-1.41,3.64-5v-8.79h6.37v10.34c0,6.19-3.09,8.67-10,8.67s-10-2.48-10-8.67V310.12h6.37Z"/><path d="M780.21,303.25h6.37v6.87h3.89V315h-3.89v5.87c0,1.73.44,2.56,1.44,2.56a3,3,0,0,0,1.59-.58l1.58,5.15a10.55,10.55,0,0,1-4.68,1.15c-5.07,0-6.3-3.78-6.3-7.06V315h-2.66v-4.86h2.66Z"/><path d="M805.77,329.13a8.45,8.45,0,0,1-6-2.3V338h-6.37V310.12h6.3v2.09h.07a8.2,8.2,0,0,1,6-2.63c5.4,0,9.18,4.36,9.18,9.76S811.17,329.13,805.77,329.13ZM803.86,315a4.15,4.15,0,0,0-4.28,4.32,4.3,4.3,0,1,0,8.6,0A4.12,4.12,0,0,0,803.86,315Z"/><path d="M824,318.91c0,3.63,1,5,3.64,5s3.63-1.41,3.63-5v-8.79h6.37v10.34c0,6.19-3.09,8.67-10,8.67s-10-2.48-10-8.67V310.12H824Z"/><path d="M842.46,303.25h6.37v6.87h3.89V315h-3.89v5.87c0,1.73.43,2.56,1.44,2.56a3,3,0,0,0,1.58-.58l1.59,5.15a10.6,10.6,0,0,1-4.68,1.15c-5.08,0-6.3-3.78-6.3-7.06V315h-2.67v-4.86h2.67Z"/><rect x="175" y="175" width="175" height="100"/><rect x="375" y="175" width="175" height="100"/><rect x="650" y="175" width="112.5" height="100"/><rect x="781.25" y="175" width="112.5" height="100"/><rect x="912.5" y="175" width="112.5" height="100"/><path class="cls-2" d="M212.6,221.1c6.12,0,11,4,11,9.79s-4.65,9.76-11,9.76c-6.66,0-11.12-4.07-11.12-9.76S206.38,221.1,212.6,221.1Zm0,14.11a4.15,4.15,0,0,0,4.28-4.32,4.3,4.3,0,1,0-8.6,0A4.12,4.12,0,0,0,212.57,235.21Z"/><path class="cls-2" d="M232.62,230.42c0,3.64,1,5,3.63,5s3.64-1.4,3.64-5v-8.78h6.37V232c0,6.19-3.09,8.68-10,8.68s-10-2.49-10-8.68V221.64h6.37Z"/><path class="cls-2" d="M251.12,214.77h6.38v6.87h3.88v4.86H257.5v5.87c0,1.73.43,2.55,1.44,2.55a3,3,0,0,0,1.58-.57l1.58,5.14a10.48,10.48,0,0,1-4.68,1.16c-5.07,0-6.3-3.78-6.3-7.06V226.5h-2.66v-4.86h2.66Z"/><path class="cls-2" d="M276.68,240.65a8.41,8.41,0,0,1-6.05-2.31v11.13h-6.37V221.64h6.3v2.09h.07a8.2,8.2,0,0,1,6.05-2.63c5.4,0,9.18,4.36,9.18,9.76S282.08,240.65,276.68,240.65Zm-1.91-14.11a4.15,4.15,0,0,0-4.28,4.32,4.3,4.3,0,1,0,8.6,0A4.12,4.12,0,0,0,274.77,226.54Z"/><path class="cls-2" d="M294.86,230.42c0,3.64,1,5,3.64,5s3.63-1.4,3.63-5v-8.78h6.38V232c0,6.19-3.1,8.68-10,8.68s-10-2.49-10-8.68V221.64h6.37Z"/><path class="cls-2" d="M313.37,214.77h6.37v6.87h3.89v4.86h-3.89v5.87c0,1.73.43,2.55,1.44,2.55a3,3,0,0,0,1.58-.57l1.59,5.14a10.53,10.53,0,0,1-4.68,1.16c-5.08,0-6.3-3.78-6.3-7.06V226.5H310.7v-4.86h2.67Z"/><path class="cls-2" d="M412.6,221.1c6.12,0,11,4,11,9.79s-4.65,9.76-11,9.76c-6.66,0-11.12-4.07-11.12-9.76S406.38,221.1,412.6,221.1Zm0,14.11a4.15,4.15,0,0,0,4.28-4.32,4.3,4.3,0,1,0-8.6,0A4.12,4.12,0,0,0,412.57,235.21Z"/><path class="cls-2" d="M432.62,230.42c0,3.64,1,5,3.63,5s3.64-1.4,3.64-5v-8.78h6.37V232c0,6.19-3.09,8.68-10,8.68s-10-2.49-10-8.68V221.64h6.37Z"/><path class="cls-2" d="M451.12,214.77h6.38v6.87h3.88v4.86H457.5v5.87c0,1.73.43,2.55,1.44,2.55a3,3,0,0,0,1.58-.57l1.58,5.14a10.48,10.48,0,0,1-4.68,1.16c-5.07,0-6.3-3.78-6.3-7.06V226.5h-2.66v-4.86h2.66Z"/><path class="cls-2" d="M476.68,240.65a8.41,8.41,0,0,1-6.05-2.31v11.13h-6.37V221.64h6.3v2.09h.07a8.2,8.2,0,0,1,6.05-2.63c5.4,0,9.18,4.36,9.18,9.76S482.08,240.65,476.68,240.65Zm-1.91-14.11a4.15,4.15,0,0,0-4.28,4.32,4.3,4.3,0,1,0,8.6,0A4.12,4.12,0,0,0,474.77,226.54Z"/><path class="cls-2" d="M494.86,230.42c0,3.64,1,5,3.64,5s3.63-1.4,3.63-5v-8.78h6.38V232c0,6.19-3.1,8.68-10,8.68s-10-2.49-10-8.68V221.64h6.37Z"/><path class="cls-2" d="M513.37,214.77h6.37v6.87h3.89v4.86h-3.89v5.87c0,1.73.43,2.55,1.44,2.55a3,3,0,0,0,1.58-.57l1.59,5.14a10.53,10.53,0,0,1-4.68,1.16c-5.08,0-6.3-3.78-6.3-7.06V226.5H510.7v-4.86h2.67Z"/><path class="cls-2" d="M674.47,222.09l-1.62,3.24a8,8,0,0,0-3.18-.9c-1.09,0-1.53.2-1.53.87s1,1,2.23,1.37c1.89.58,4.35,1.64,4.35,4.57,0,4.21-3.85,4.88-6.78,4.88a8.56,8.56,0,0,1-5.52-1.92l2-3.38s2,1.65,3.54,1.65c.7,0,1.53-.09,1.53-1s-1.56-1.12-3.18-2c-1.45-.75-2.9-1.75-2.9-3.9,0-2.93,2.48-4.6,6.25-4.6A11,11,0,0,1,674.47,222.09Z"/><path class="cls-2" d="M677.76,216.07h4.93v5.32h3v3.77h-3v4.55c0,1.33.34,2,1.12,2a2.34,2.34,0,0,0,1.23-.45l1.22,4a8.18,8.18,0,0,1-3.62.89c-3.94,0-4.88-2.93-4.88-5.47v-5.49h-2.07v-3.77h2.07Z"/><path class="cls-2" d="M694,221a6.52,6.52,0,0,1,4.69,1.78v-11h4.94v24h-4.88v-1.62h-.06a6.31,6.31,0,0,1-4.69,2c-4.18,0-7.11-3.37-7.11-7.56S689.83,221,694,221Zm1.48,10.93a3.22,3.22,0,0,0,3.32-3.35,3.33,3.33,0,1,0-6.66,0A3.19,3.19,0,0,0,695.49,231.91Z"/><path class="cls-2" d="M714.57,221c4.74,0,8.53,3.12,8.53,7.58s-3.6,7.56-8.53,7.56c-5.16,0-8.62-3.15-8.62-7.56S709.74,221,714.57,221Zm0,10.93a3.22,3.22,0,0,0,3.32-3.35,3.34,3.34,0,1,0-6.67,0A3.2,3.2,0,0,0,714.54,231.91Z"/><path class="cls-2" d="M730.07,228.2c0,2.82.75,3.9,2.82,3.9s2.81-1.08,2.81-3.9v-6.81h4.94v8c0,4.8-2.4,6.72-7.75,6.72s-7.76-1.92-7.76-6.72v-8h4.94Z"/><path class="cls-2" d="M744.4,216.07h4.94v5.32h3v3.77h-3v4.55c0,1.33.33,2,1.11,2a2.3,2.3,0,0,0,1.23-.45l1.23,4a8.19,8.19,0,0,1-3.63.89c-3.93,0-4.88-2.93-4.88-5.47v-5.49h-2.06v-3.77h2.06Z"/><path class="cls-2" d="M791.19,218.35c0-4.18,2-7,5.61-7a6.83,6.83,0,0,1,4.07,1.28l-1.73,3.49a3.28,3.28,0,0,0-1.48-.39c-1.25,0-1.53.83-1.53,2.81v2.9h3.29v3.77h-3.29V235.7h-4.94V225.16h-2.06v-3.77h2.06Z"/><path class="cls-2" d="M808.4,221c4.74,0,8.53,3.12,8.53,7.58s-3.59,7.56-8.53,7.56c-5.16,0-8.62-3.15-8.62-7.56S803.57,221,808.4,221Zm0,10.93a3.22,3.22,0,0,0,3.32-3.35,3.34,3.34,0,1,0-6.67,0A3.2,3.2,0,0,0,808.37,231.91Z"/><path class="cls-2" d="M826.83,221c4.74,0,8.54,3.12,8.54,7.58s-3.6,7.56-8.54,7.56c-5.16,0-8.62-3.15-8.62-7.56S822,221,826.83,221Zm0,10.93a3.22,3.22,0,0,0,3.32-3.35,3.33,3.33,0,1,0-6.66,0A3.19,3.19,0,0,0,826.8,231.91Z"/><path class="cls-2" d="M844.06,232.94a3.19,3.19,0,1,1-3.2-3.21A3.18,3.18,0,0,1,844.06,232.94Z"/><path class="cls-2" d="M848.25,216.07h4.93v5.32h3v3.77h-3v4.55c0,1.33.34,2,1.12,2a2.29,2.29,0,0,0,1.22-.45l1.23,4a8.18,8.18,0,0,1-3.62.89c-3.94,0-4.88-2.93-4.88-5.47v-5.49h-2.07v-3.77h2.07Z"/><path class="cls-2" d="M869,235.7l-3.15-4-3.15,4h-6l6.11-7.47-5.25-6.84h5.78l2.48,3.32,2.48-3.32h5.78l-5.25,6.84L875,235.7Z"/><path class="cls-2" d="M877.5,216.07h4.93v5.32h3v3.77h-3v4.55c0,1.33.34,2,1.12,2a2.34,2.34,0,0,0,1.23-.45l1.22,4a8.18,8.18,0,0,1-3.62.89c-3.93,0-4.88-2.93-4.88-5.47v-5.49h-2.07v-3.77h2.07Z"/><path class="cls-2" d="M926.67,236.12a6.32,6.32,0,0,1-4.69-2h-.05v1.62h-4.88v-24H922v11a6.52,6.52,0,0,1,4.69-1.78c4.18,0,7.11,3.4,7.11,7.58S930.85,236.12,926.67,236.12Zm-1.48-10.93a3.27,3.27,0,0,0-3.32,3.37,3.34,3.34,0,1,0,6.67,0A3.27,3.27,0,0,0,925.19,225.19Z"/><path class="cls-2" d="M942.17,221a6.52,6.52,0,0,1,4.69,1.78v-1.37h4.93V235.7h-4.88v-1.62h0a6.32,6.32,0,0,1-4.69,2c-4.18,0-7.11-3.37-7.11-7.56S938,221,942.17,221Zm1.48,10.93a3.22,3.22,0,0,0,3.32-3.35,3.34,3.34,0,1,0-6.67,0A3.2,3.2,0,0,0,943.65,231.91Z"/><path class="cls-2" d="M955.14,221.39h4.93v2.07h.06a5.6,5.6,0,0,1,4.38-2.48,5.92,5.92,0,0,1,3.12.89l-2.06,4.18a4.17,4.17,0,0,0-2.57-.78,3,3,0,0,0-2.93,2.9v7.53h-4.93Z"/><path class="cls-2" d="M973.88,232.94a3.2,3.2,0,1,1-3.21-3.21A3.18,3.18,0,0,1,973.88,232.94Z"/><path class="cls-2" d="M977.22,211.71h4.94v24h-4.94Z"/><path class="cls-2" d="M993.09,221c4.74,0,8.54,3.12,8.54,7.58s-3.6,7.56-8.54,7.56c-5.16,0-8.62-3.15-8.62-7.56S988.27,221,993.09,221Zm0,10.93a3.22,3.22,0,0,0,3.32-3.35,3.33,3.33,0,1,0-6.66,0A3.19,3.19,0,0,0,993.06,231.91Z"/><path class="cls-2" d="M1007.34,237.24a4.32,4.32,0,0,0,3.88,1.84,3.3,3.3,0,0,0,3.48-3.35v-1.06c-1.06,1.17-2.73,1.45-4.68,1.45-4.19,0-7.11-3.37-7.11-7.56s2.92-7.58,7.11-7.58a6.51,6.51,0,0,1,4.6,1.7h.08v-1.29h4.94v14.7c0,4.8-3.54,7.28-8.42,7.28-3,0-6.42-.67-7.92-4.15Zm4.16-5.33a3.22,3.22,0,0,0,3.32-3.35,3.34,3.34,0,1,0-6.67,0A3.2,3.2,0,0,0,1011.5,231.91Z"/><rect class="cls-2" x="625" y="400" width="425" height="200"/><path d="M644.13,548.89H665v5.94h-7v23.76h-6.77V554.83h-7.06Z"/><path d="M672.5,559.58a8.4,8.4,0,0,1,6,2.31v-1.77h6.37v18.47h-6.3V576.5h-.07a8.2,8.2,0,0,1-6,2.63c-5.4,0-9.18-4.36-9.18-9.75S667.1,559.58,672.5,559.58Zm1.91,14.11a4.15,4.15,0,0,0,4.28-4.31,4.3,4.3,0,1,0-8.6,0A4.12,4.12,0,0,0,674.41,573.69Z"/><path d="M701.66,579.13a8.2,8.2,0,0,1-6-2.63h-.07v2.09h-6.3v-31h6.37v14.26a8.4,8.4,0,0,1,6-2.31c5.4,0,9.18,4.4,9.18,9.8S707.06,579.13,701.66,579.13ZM699.75,565a4.22,4.22,0,0,0-4.28,4.36,4.3,4.3,0,1,0,8.6,0A4.23,4.23,0,0,0,699.75,565Z"/><path d="M719.84,568.91c0,3.63,1,5,3.64,5s3.63-1.41,3.63-5v-8.79h6.37v10.34c0,6.19-3.09,8.67-10,8.67s-10-2.48-10-8.67V560.12h6.37Z"/><path d="M737.45,547.63h6.37v31h-6.37Z"/><path d="M756,559.58a8.38,8.38,0,0,1,6,2.31v-1.77h6.37v18.47h-6.3V576.5H762a8.2,8.2,0,0,1-6,2.63c-5.39,0-9.17-4.36-9.17-9.75S750.59,559.58,756,559.58Zm1.91,14.11a4.15,4.15,0,0,0,4.29-4.31,4.31,4.31,0,1,0-8.61,0A4.12,4.12,0,0,0,757.89,573.69Z"/><path d="M772.73,560.12h6.37v2.67h.07a7.22,7.22,0,0,1,5.65-3.21,7.59,7.59,0,0,1,4,1.16l-2.66,5.4a5.38,5.38,0,0,0-3.31-1c-3.32,0-3.78,3.27-3.78,3.74v9.72h-6.37Z"/><path d="M804.29,548.35a15,15,0,0,1,14.94,15.37c0,8.68-6.4,15.41-14.94,15.41-8.78,0-15-6.73-15-15.41A15.12,15.12,0,0,1,804.29,548.35Zm0,24.23c5.4,0,7.64-4.43,7.64-8.86s-2.38-8.85-7.64-8.85-7.66,4.43-7.66,8.85S798.75,572.58,804.29,572.58Z"/><path d="M828.24,568.91c0,3.63,1,5,3.63,5s3.64-1.41,3.64-5v-8.79h6.37v10.34c0,6.19-3.1,8.67-10,8.67s-10-2.48-10-8.67V560.12h6.37Z"/><path d="M846.74,553.25h6.37v6.87H857V565h-3.89v5.87c0,1.73.43,2.56,1.44,2.56a3,3,0,0,0,1.59-.58l1.58,5.15a10.55,10.55,0,0,1-4.68,1.15c-5.08,0-6.3-3.78-6.3-7.06V565h-2.66v-4.86h2.66Z"/><path d="M872.3,579.13a8.43,8.43,0,0,1-6-2.3V588h-6.37V560.12h6.3v2.09h.07a8.2,8.2,0,0,1,6-2.63c5.4,0,9.18,4.36,9.18,9.76S877.7,579.13,872.3,579.13ZM870.39,565a4.15,4.15,0,0,0-4.28,4.32,4.3,4.3,0,1,0,8.6,0A4.12,4.12,0,0,0,870.39,565Z"/><path d="M890.48,568.91c0,3.63,1,5,3.64,5s3.63-1.41,3.63-5v-8.79h6.37v10.34c0,6.19-3.09,8.67-10,8.67s-10-2.48-10-8.67V560.12h6.37Z"/><path d="M909,553.25h6.38v6.87h3.88V565h-3.88v5.87c0,1.73.43,2.56,1.44,2.56a3,3,0,0,0,1.58-.58L920,578a10.55,10.55,0,0,1-4.68,1.15c-5.07,0-6.3-3.78-6.3-7.06V565h-2.66v-4.86H909Z"/><rect x="650" y="425" width="175" height="100"/><rect x="850" y="425" width="175" height="100"/><path class="cls-2" d="M666.18,467.72c0-5.4,2.63-9.11,7.24-9.11a8.77,8.77,0,0,1,5.25,1.66l-2.23,4.5a4.15,4.15,0,0,0-1.9-.51c-1.62,0-2,1.08-2,3.64v3.74h4.24v4.86h-4.24v13.61h-6.38V476.5h-2.66v-4.86h2.66Z"/><path class="cls-2" d="M691,490.65a8.16,8.16,0,0,1-6-2.63h-.08v2.09h-6.3v-31H685V473.4a8.41,8.41,0,0,1,6-2.3c5.4,0,9.18,4.39,9.18,9.79S696.42,490.65,691,490.65Zm-1.9-14.11a4.22,4.22,0,0,0-4.29,4.35,4.3,4.3,0,1,0,8.6,0A4.22,4.22,0,0,0,689.12,476.54Z"/><path class="cls-2" d="M711,471.1a8.43,8.43,0,0,1,6.05,2.3v-1.76h6.37v18.47h-6.3V488h-.07a8.2,8.2,0,0,1-6.05,2.63c-5.4,0-9.18-4.36-9.18-9.76S705.64,471.1,711,471.1ZM713,485.21a4.15,4.15,0,0,0,4.28-4.32,4.3,4.3,0,1,0-8.6,0A4.12,4.12,0,0,0,713,485.21Z"/><path class="cls-2" d="M727.78,471.64h6.37v2.66h.07a7.25,7.25,0,0,1,5.66-3.2,7.67,7.67,0,0,1,4,1.15l-2.67,5.4a5.38,5.38,0,0,0-3.31-1c-3.31,0-3.78,3.28-3.78,3.75v9.72h-6.37Z"/><path class="cls-2" d="M752,486.54a4.12,4.12,0,1,1-4.14-4.14A4.11,4.11,0,0,1,752,486.54Z"/><path class="cls-2" d="M761.73,480.86a4.48,4.48,0,0,0,4.39,4.57,5.55,5.55,0,0,0,3.09-.87l2.16,4.43a10.39,10.39,0,0,1-6.19,1.66c-5.32,0-10.22-4.32-10.22-9.72s4.86-9.83,10.22-9.83a10.11,10.11,0,0,1,6.19,1.73l-2.16,4.35a5.6,5.6,0,0,0-3.09-.86A4.47,4.47,0,0,0,761.73,480.86Z"/><path class="cls-2" d="M788,472.54,786,476.72a10.42,10.42,0,0,0-4.11-1.16c-1.4,0-2,.26-2,1.12s1.3,1.26,2.88,1.77c2.45.75,5.62,2.12,5.62,5.9,0,5.43-5,6.3-8.75,6.3a11.06,11.06,0,0,1-7.13-2.49l2.59-4.35s2.52,2.12,4.58,2.12c.9,0,2-.11,2-1.33s-2-1.44-4.11-2.52c-1.87-1-3.74-2.27-3.74-5,0-3.78,3.2-5.94,8.06-5.94A14.05,14.05,0,0,1,788,472.54Z"/><path class="cls-2" d="M800.71,481.68l4.5-10h7.56l-9.89,18.47h-4.33l-9.89-18.47h7.56Z"/><path class="cls-2" d="M895.05,472.54,893,476.72a10.35,10.35,0,0,0-4.11-1.16c-1.4,0-2,.26-2,1.12s1.3,1.26,2.88,1.77c2.45.75,5.62,2.12,5.62,5.9,0,5.43-5,6.3-8.75,6.3a11.06,11.06,0,0,1-7.13-2.49l2.6-4.35s2.52,2.12,4.57,2.12c.9,0,2-.11,2-1.33s-2-1.44-4.11-2.52c-1.87-1-3.74-2.27-3.74-5,0-3.78,3.2-5.94,8.06-5.94A14.05,14.05,0,0,1,895.05,472.54Z"/><path class="cls-2" d="M899.3,464.77h6.38v6.87h3.88v4.86h-3.88v5.87c0,1.73.43,2.55,1.44,2.55a3,3,0,0,0,1.58-.57l1.58,5.14a10.48,10.48,0,0,1-4.68,1.16c-5.07,0-6.3-3.78-6.3-7.06V476.5h-2.66v-4.86h2.66Z"/><path class="cls-2" d="M920.29,471.1a8.43,8.43,0,0,1,6.05,2.3V459.15h6.37v31h-6.3V488h-.07a8.2,8.2,0,0,1-6.05,2.63c-5.4,0-9.18-4.36-9.18-9.76S914.89,471.1,920.29,471.1Zm1.91,14.11a4.15,4.15,0,0,0,4.28-4.32,4.3,4.3,0,1,0-8.6,0A4.12,4.12,0,0,0,922.2,485.21Z"/><path class="cls-2" d="M946.82,471.1c6.12,0,11,4,11,9.79s-4.65,9.76-11,9.76c-6.66,0-11.12-4.07-11.12-9.76S940.6,471.1,946.82,471.1Zm0,14.11a4.15,4.15,0,0,0,4.28-4.32,4.3,4.3,0,1,0-8.6,0A4.12,4.12,0,0,0,946.79,485.21Z"/><path class="cls-2" d="M966.84,480.42c0,3.64,1,5,3.63,5s3.64-1.4,3.64-5v-8.78h6.37V482c0,6.19-3.09,8.68-10,8.68s-10-2.49-10-8.68V471.64h6.37Z"/><path class="cls-2" d="M985.34,464.77h6.37v6.87h3.89v4.86h-3.89v5.87c0,1.73.44,2.55,1.45,2.55a3,3,0,0,0,1.58-.57l1.58,5.14a10.48,10.48,0,0,1-4.68,1.16c-5.07,0-6.3-3.78-6.3-7.06V476.5h-2.66v-4.86h2.66Z"/><rect class="cls-2" x="150" y="525" width="425" height="75"/><path d="M169.13,548.89H190v5.94h-7v23.76h-6.77V554.83h-7.06Z"/><path d="M195,570.24a3.77,3.77,0,0,0,4,3.81,5.06,5.06,0,0,0,4.5-2l4.61,2.31c-2.09,3.49-5.47,4.82-9.58,4.82a9.78,9.78,0,1,1,0-19.55c5.62,0,9.9,3.32,9.9,9.8a8,8,0,0,1,0,.86Zm7.19-3.53a3.28,3.28,0,0,0-3.49-3,3.19,3.19,0,0,0-3.53,3Z"/><path d="M211.29,560.12h6.37v2h.07a7.66,7.66,0,0,1,5.29-2.49c3.39,0,8.1,1.7,8.1,6.84v12.17h-6.37V568.15a3.42,3.42,0,0,0-3.31-3.6,3.93,3.93,0,0,0-3.78,3.6v10.44h-6.37Z"/><path d="M249.12,561,247,565.2a10.42,10.42,0,0,0-4.11-1.15c-1.4,0-2,.25-2,1.11s1.3,1.26,2.88,1.77c2.45.75,5.62,2.12,5.62,5.9,0,5.44-5,6.3-8.75,6.3a11.08,11.08,0,0,1-7.13-2.48l2.6-4.36s2.52,2.12,4.57,2.12c.9,0,2-.1,2-1.33s-2-1.44-4.11-2.52c-1.87-1-3.74-2.27-3.74-5,0-3.78,3.2-5.94,8.06-5.94A14.05,14.05,0,0,1,249.12,561Z"/><path d="M262.41,559.58c6.12,0,11,4,11,9.8s-4.64,9.75-11,9.75c-6.66,0-11.12-4.07-11.12-9.75S256.18,559.58,262.41,559.58Zm0,14.11a4.15,4.15,0,0,0,4.29-4.31,4.31,4.31,0,1,0-8.61,0A4.12,4.12,0,0,0,262.37,573.69Z"/><path d="M276.34,560.12h6.37v2.67h.08a7.22,7.22,0,0,1,5.65-3.21,7.63,7.63,0,0,1,4,1.16l-2.67,5.4a5.34,5.34,0,0,0-3.31-1c-3.31,0-3.78,3.27-3.78,3.74v9.72h-6.37Z"/><path d="M303.48,548.89c5.12,0,9.15,1.91,9.15,7.56a6.78,6.78,0,0,1-3.71,6.37c3.71.65,6.33,2.7,6.33,7.49s-3.56,8.28-9.71,8.28H294.27v-29.7Zm-1.9,11.63c2.91,0,4.5-.9,4.5-3.38,0-2.13-1.55-3-4.5-3H301v6.41Zm1.58,12.85c3.2,0,5-1,5-3.31,0-2.74-1.77-3.71-5-3.71H301v7Z"/><path d="M328,559.58c6.11,0,11,4,11,9.8s-4.64,9.75-11,9.75c-6.66,0-11.13-4.07-11.13-9.75S321.81,559.58,328,559.58Zm0,14.11a4.15,4.15,0,0,0,4.28-4.31,4.3,4.3,0,1,0-8.6,0A4.12,4.12,0,0,0,328,573.69Z"/><path d="M349.71,559.58a8.41,8.41,0,0,1,6.05,2.31v-1.77h6.37v18.47h-6.3V576.5h-.07a8.2,8.2,0,0,1-6.05,2.63c-5.4,0-9.18-4.36-9.18-9.75S344.31,559.58,349.71,559.58Zm1.91,14.11a4.15,4.15,0,0,0,4.28-4.31,4.3,4.3,0,1,0-8.6,0A4.11,4.11,0,0,0,351.62,573.69Z"/><path d="M366.45,560.12h6.37v2.67h.07a7.24,7.24,0,0,1,5.65-3.21,7.59,7.59,0,0,1,4,1.16l-2.66,5.4a5.38,5.38,0,0,0-3.31-1c-3.31,0-3.78,3.27-3.78,3.74v9.72h-6.37Z"/><path d="M392.22,559.58a8.38,8.38,0,0,1,6,2.31V547.63h6.37v31h-6.3V576.5h-.07a8.2,8.2,0,0,1-6,2.63c-5.4,0-9.18-4.36-9.18-9.75S386.82,559.58,392.22,559.58Zm1.91,14.11a4.14,4.14,0,0,0,4.28-4.31,4.3,4.3,0,1,0-8.6,0A4.12,4.12,0,0,0,394.13,573.69Z"/><path d="M422.61,548.35a15,15,0,0,1,14.93,15.37c0,8.68-6.4,15.41-14.93,15.41-8.79,0-15-6.73-15-15.41A15.13,15.13,0,0,1,422.61,548.35Zm0,24.23c5.4,0,7.63-4.43,7.63-8.86s-2.38-8.85-7.63-8.85-7.67,4.43-7.67,8.85S417.06,572.58,422.61,572.58Z"/><path d="M446.55,568.91c0,3.63,1,5,3.63,5s3.64-1.41,3.64-5v-8.79h6.37v10.34c0,6.19-3.1,8.67-10,8.67s-10-2.48-10-8.67V560.12h6.37Z"/><path d="M465.05,553.25h6.37v6.87h3.89V565h-3.89v5.87c0,1.73.44,2.56,1.44,2.56a3,3,0,0,0,1.59-.58L476,578a10.55,10.55,0,0,1-4.68,1.15c-5.07,0-6.3-3.78-6.3-7.06V565h-2.66v-4.86h2.66Z"/><path d="M490.61,579.13a8.45,8.45,0,0,1-6.05-2.3V588h-6.37V560.12h6.3v2.09h.07a8.2,8.2,0,0,1,6.05-2.63c5.4,0,9.18,4.36,9.18,9.76S496,579.13,490.61,579.13ZM488.7,565a4.15,4.15,0,0,0-4.28,4.32,4.3,4.3,0,1,0,8.6,0A4.12,4.12,0,0,0,488.7,565Z"/><path d="M508.79,568.91c0,3.63,1,5,3.64,5s3.63-1.41,3.63-5v-8.79h6.37v10.34c0,6.19-3.09,8.67-10,8.67s-10-2.48-10-8.67V560.12h6.37Z"/><path d="M527.3,553.25h6.37v6.87h3.88V565h-3.88v5.87c0,1.73.43,2.56,1.44,2.56a3,3,0,0,0,1.58-.58l1.58,5.15a10.55,10.55,0,0,1-4.68,1.15c-5.07,0-6.29-3.78-6.29-7.06V565h-2.67v-4.86h2.67Z"/><rect class="cls-2" x="150" y="400" width="425" height="75"/><path d="M177.77,453.59H171v-29.7h6.76Z"/><path d="M182.09,435.12h6.37v1.95h.08a7.64,7.64,0,0,1,5.29-2.49c2.45,0,5.15.9,6.44,3.39,1.95-2.34,4.11-3.39,6.12-3.39,3.38,0,7.2,1.7,7.2,6.84v12.17h-6.37V443.15c0-1.83-1-3.45-3.24-3.45a2.82,2.82,0,0,0-2.95,2.88v11h-6.37V443.15c0-1.83-1-3.45-3.24-3.45a2.86,2.86,0,0,0-3,3.09v10.8h-6.37Z"/><path d="M225.4,434.58a8.4,8.4,0,0,1,6,2.31v-1.77h6.37v18.47h-6.3V451.5h-.07a8.2,8.2,0,0,1-6,2.63c-5.4,0-9.18-4.36-9.18-9.75S220,434.58,225.4,434.58Zm1.91,14.11a4.15,4.15,0,0,0,4.28-4.31,4.3,4.3,0,1,0-8.6,0A4.12,4.12,0,0,0,227.31,448.69Z"/><path d="M246.53,455.57a5.56,5.56,0,0,0,5,2.38,4.26,4.26,0,0,0,4.5-4.32v-1.37c-1.37,1.51-3.53,1.87-6.05,1.87-5.4,0-9.18-4.36-9.18-9.75s3.78-9.8,9.18-9.8a8.45,8.45,0,0,1,5.94,2.2H256v-1.66h6.37v19c0,6.2-4.58,9.4-10.87,9.4-3.86,0-8.28-.87-10.23-5.37Zm5.37-6.88a4.15,4.15,0,0,0,4.28-4.31,4.3,4.3,0,1,0-8.6,0A4.11,4.11,0,0,0,251.9,448.69Z"/><path d="M271.84,445.24a3.78,3.78,0,0,0,4,3.81,5.06,5.06,0,0,0,4.5-2.05l4.6,2.31c-2.08,3.49-5.47,4.82-9.57,4.82a9.78,9.78,0,1,1,0-19.55c5.61,0,9.9,3.32,9.9,9.8a6,6,0,0,1,0,.86Zm7.2-3.53a3.28,3.28,0,0,0-3.49-3c-2.2,0-3.42,1.3-3.53,3Z"/><path d="M301.9,423.35a15.05,15.05,0,0,1,14.94,15.37c0,8.68-6.41,15.41-14.94,15.41-8.78,0-15-6.73-15-15.41A15.12,15.12,0,0,1,301.9,423.35Zm0,24.23c5.4,0,7.63-4.43,7.63-8.86s-2.38-8.85-7.63-8.85-7.67,4.43-7.67,8.85S296.36,447.58,301.9,447.58Z"/><path d="M325.84,443.91c0,3.63,1,5,3.64,5s3.63-1.41,3.63-5v-8.79h6.37v10.34c0,6.19-3.09,8.67-10,8.67s-10-2.48-10-8.67V435.12h6.37Z"/><path d="M344.35,428.25h6.37v6.87h3.88V440h-3.88v5.87c0,1.73.43,2.56,1.44,2.56a3,3,0,0,0,1.58-.58l1.58,5.15a10.55,10.55,0,0,1-4.68,1.15c-5.07,0-6.29-3.78-6.29-7.06V440h-2.67v-4.86h2.67Z"/><path d="M369.9,454.13a8.41,8.41,0,0,1-6-2.3V463h-6.38V435.12h6.3v2.09h.08a8.16,8.16,0,0,1,6-2.63c5.4,0,9.18,4.36,9.18,9.76S375.3,454.13,369.9,454.13ZM368,440a4.15,4.15,0,0,0-4.29,4.32,4.3,4.3,0,1,0,8.6,0A4.11,4.11,0,0,0,368,440Z"/><path d="M388.08,443.91c0,3.63,1,5,3.64,5s3.63-1.41,3.63-5v-8.79h6.38v10.34c0,6.19-3.1,8.67-10,8.67s-10-2.48-10-8.67V435.12h6.37Z"/><path d="M406.59,428.25H413v6.87h3.89V440H413v5.87c0,1.73.43,2.56,1.44,2.56a3,3,0,0,0,1.58-.58l1.59,5.15a10.55,10.55,0,0,1-4.68,1.15c-5.08,0-6.3-3.78-6.3-7.06V440h-2.66v-4.86h2.66Z"/></svg>
